<svg width="1053" height="398" viewBox="0 0 1053 398" fill="none" xmlns="http://www.w3.org/2000/svg">
<rect y="76" width="1053" height="322" rx="25" fill="#B0BEEF"/>
<g opacity="0.2">
<mask id="mask0_1627_4199" style="mask-type:alpha" maskUnits="userSpaceOnUse" x="0" y="76" width="1053" height="322">
<rect y="76" width="1053" height="322" rx="25" fill="#B0BEEF"/>
</mask>
<g mask="url(#mask0_1627_4199)">
<path d="M954.082 194.598C946.772 211.162 931.809 224.481 909.101 233.763C886.314 243.078 856.471 247.975 821.24 247.898C750.819 247.743 661.322 227.716 569.804 187.328C478.287 146.94 403.172 94.3207 355.596 42.4014C331.794 16.4272 315.299 -8.92072 306.822 -32.0323C298.375 -55.0643 298.129 -75.0948 305.439 -91.659C312.749 -108.223 327.712 -121.542 350.421 -130.824C373.208 -140.139 403.051 -145.036 438.281 -144.959C508.702 -144.804 598.2 -124.777 689.717 -84.3888C781.235 -44.0006 856.349 8.61822 903.926 60.5376C927.727 86.5118 944.223 111.86 952.699 134.971C961.147 158.003 961.392 178.034 954.082 194.598Z" stroke="#6988F3" stroke-width="25"/>
<path d="M748.082 588.598C740.772 605.162 725.809 618.481 703.101 627.763C680.314 637.078 650.471 641.975 615.24 641.898C544.819 641.743 455.322 621.716 363.804 581.328C272.287 540.94 197.172 488.321 149.596 436.401C125.794 410.427 109.299 385.079 100.822 361.968C92.3746 338.936 92.1292 318.905 99.4392 302.341C106.749 285.777 121.712 272.458 144.421 263.176C167.208 253.861 197.051 248.964 232.281 249.041C302.702 249.196 392.2 269.223 483.717 309.611C575.235 349.999 650.349 402.618 697.926 454.538C721.727 480.512 738.223 505.86 746.699 528.971C755.147 552.003 755.392 572.034 748.082 588.598Z" stroke="#6988F3" stroke-width="25"/>
</g>
</g>
<circle cx="527" cy="76" r="73.5" fill="#B0BEEF" stroke="white" stroke-width="5"/>
<path d="M482.021 49.0227V101.025C482.021 102.652 483.43 103.969 485.167 103.969H568.846C570.584 103.969 571.992 102.652 571.992 101.025V49.0227L563.109 49.0955L527.016 77.5572L492.694 49.0227H482.021Z" fill="#D9F6FB"/>
<path d="M563.117 49.0955L527.024 77.5572L492.702 49.0227H482.029V101.025C482.029 102.652 483.439 103.969 485.177 103.969H568.854C570.591 103.969 572 102.652 572 101.025V49.0227L563.117 49.0955ZM570.171 100.06C570.171 101.622 568.818 102.887 567.15 102.887H486.818C485.15 102.887 483.797 101.622 483.797 100.06V50.1375H491.645L527.016 79.6955L563.675 50.1917L570.171 50.1375V100.06Z" fill="#EDFFFF"/>
<path d="M482.13 49.1448C482.13 49.1448 518.52 91.0574 526.867 91.0574C534.364 91.0574 571.817 49.1959 571.817 49.1959C571.817 49.1959 570.361 50.1168 568.805 50.1168C553.39 50.1168 502.731 50.1168 484.719 50.1168C483.529 50.1168 482.13 49.1448 482.13 49.1448Z" fill="#96B1B6"/>
<path d="M535.956 70.5083L538.142 68.7858L568.283 98.9139L532.593 72.3146L535.956 70.5083Z" fill="#96B1B6"/>
<path d="M518.539 70.4739L515.877 68.2953L486.032 99.5374L521.42 72.3147L518.539 70.4739Z" fill="#96B1B6"/>
<path d="M482.753 102.893C482.753 102.893 518.662 65.5376 527.007 65.5376C534.504 65.5376 571.276 102.893 571.276 102.893C571.276 102.893 570.402 103.969 568.846 103.969C553.429 103.969 502.771 103.969 484.762 103.969C483.57 103.969 482.753 102.893 482.753 102.893Z" fill="#D9F6FB"/>
<path d="M569.246 100.877C568.872 101.078 568.394 101.24 567.82 101.24C552.785 101.24 503.376 101.24 485.811 101.24C485.394 101.24 485.026 101.091 484.725 100.904C483.485 102.169 482.761 102.923 482.761 102.923C482.761 102.923 483.577 104 484.768 104C502.777 104 553.438 104 568.852 104C570.409 104 571.283 102.923 571.283 102.923C571.283 102.923 570.528 102.158 569.246 100.877Z" fill="#EDFFFF"/>
<path d="M571.164 102.995C571.164 102.995 534.39 65.6399 526.893 65.6399C518.548 65.6399 482.639 102.995 482.639 102.995C482.639 102.995 518.548 66.547 526.893 66.547C534.39 66.547 571.164 102.995 571.164 102.995Z" fill="#EDFFFF"/>
<path d="M482.021 49.0227C482.021 49.0227 518.726 87.5137 527.071 87.5137C534.569 87.5137 571.992 49.0227 571.992 49.0227C571.992 49.0227 570.467 49.0827 568.909 49.0827C553.494 49.0827 502.835 49.0827 484.825 49.0827C483.633 49.0827 482.021 49.0227 482.021 49.0227Z" fill="#D9F6FB"/>
<path d="M571.992 49.0227C571.992 49.0227 570.446 49.0611 568.887 49.0611C553.474 49.0611 502.813 49.0611 484.804 49.0611C483.613 49.0611 482 49 482 49C482 49 481.962 48.9843 483.801 50.8683C501.924 50.8683 554.762 50.8339 570.14 50.8339C570.169 50.8339 571.992 49.0227 571.992 49.0227Z" fill="#EDFFFF"/>
<path d="M571.228 49.8048C571.228 49.8048 534.454 87.4112 526.956 87.4112C518.612 87.4112 482.262 49.2817 482.262 49.2817C482.262 49.2817 518.677 84.754 527.021 84.754C534.519 84.754 571.228 49.8048 571.228 49.8048Z" fill="#EDFFFF"/>
<path d="M500.806 67.8571C510.684 77.9394 522.145 88.5745 526.535 88.5745C529.771 88.5745 538.583 81.7097 546.728 73.5586C538.308 81.1119 529.584 87.1739 526.535 87.1739C522.353 87.1739 511.045 77.5051 500.806 67.8571Z" fill="#AEB5B6"/>
</svg>
