<svg width="1440" height="2096" viewBox="0 0 1440 2096" fill="none" xmlns="http://www.w3.org/2000/svg">
<path d="M0 0H1440V1860C1440 1860 1124 2096 720 2096C316 2096 0 1860 0 1860V0Z" fill="#FFF5F5"/>
<path opacity="0.1" d="M1525.5 657.385C1525.41 657.453 1525.3 657.543 1525.15 657.655C1524.78 657.927 1524.24 658.327 1523.51 658.829C1522.05 659.834 1519.86 661.252 1516.95 662.896C1511.12 666.184 1502.39 670.376 1490.82 673.978C1467.67 681.182 1433.13 686.031 1387.58 676.559C1359.01 670.617 1337.66 655.175 1323.79 632.859C1309.91 610.533 1303.49 581.295 1304.85 547.751C1305.08 541.875 1303.49 535.117 1300.47 527.468C1297.45 519.815 1292.98 511.235 1287.42 501.705C1280.31 489.53 1271.41 475.769 1261.46 460.377C1255.84 451.684 1249.88 442.472 1243.72 432.73C1207.24 375.05 1196.78 304.534 1215.88 253.479C1225.43 227.965 1242.36 207.319 1267.11 195.533C1291.87 183.744 1324.51 180.789 1365.53 190.772C1385.5 195.633 1400.59 194.246 1413.24 190.036C1424.24 186.374 1433.37 180.577 1442.21 174.968C1443.51 174.141 1444.81 173.319 1446.1 172.507C1456.2 166.183 1466.22 160.548 1478.65 158.951C1491.01 157.362 1505.82 159.761 1525.5 169.586L1525.5 657.385Z" stroke="#6988F3"/>
<path opacity="0.1" d="M1606 577.628C1606 577.628 1558.75 616.029 1467.48 597.048C1410.07 585.109 1381.63 534.96 1384.35 467.731C1385.28 444.621 1357.46 407.021 1323.3 352.997C1250.21 237.437 1281.25 70.2791 1445.65 110.286C1525.2 129.646 1526.48 49.3893 1606 89.2773L1606 577.628Z" fill="#6988F3"/>
<path opacity="0.1" d="M-131.836 1036.18L-131.836 1036.17L-131.819 1030.71L-131.819 1030.7L-131.819 1030.3L-131.819 1030.3L-131.816 1029.61L-131.816 1029.61L-131.8 1023.87L-131.783 1018.71L-131.783 1018.71L-131.783 1018.41L-131.783 1018.41L-131.782 1018.1L-131.782 1018.1L-131.745 1005.9L-131.745 1005.9L-131.745 1005.61L-131.745 1005.6L-131.744 1005.3L-131.744 1005.29L-131.729 1000.14L-131.707 993.305L-131.693 988.142L-131.693 988.14L-131.691 987.838L-131.691 987.836L-131.691 987.535L-131.691 987.534L-131.213 827.725L-131.213 827.716L-132.498 743.31C-132.487 743.294 -132.476 743.277 -132.464 743.258C-132.385 743.14 -132.267 742.965 -132.108 742.736C-131.79 742.278 -131.308 741.607 -130.657 740.76C-129.357 739.066 -127.382 736.67 -124.693 733.869C-119.315 728.266 -111.081 721.046 -99.6692 714.593C-76.8567 701.692 -41.304 691.828 9.61327 704.123C24.8827 707.81 44.1912 720.308 60.124 738.476C76.0496 756.635 88.5503 780.398 90.281 806.562C92.0184 832.831 104.219 847.403 117.658 863.457C120.735 867.132 123.877 870.885 126.974 874.874C135.294 885.592 143.329 898.049 149.006 915.327C154.684 932.61 158.012 954.741 156.884 984.814C154.481 1048.84 106.761 1096.76 47.2411 1120.76C-12.1898 1144.72 -83.219 1144.76 -132.296 1113.26L-131.836 1036.18Z" stroke="#6988F3"/>
<path opacity="0.1" d="M-144.797 1203.54L-144.336 1126.17L-144.319 1120.7L-144.319 1120.3L-144.316 1119.6L-144.3 1113.87L-144.283 1108.71L-144.283 1108.41L-144.282 1108.1L-144.245 1095.9L-144.245 1095.6L-144.244 1095.29L-144.229 1090.14L-144.207 1083.3L-144.193 1078.14L-144.191 1077.84L-144.191 1077.53L-143.713 917.723L-145 833.165C-145 833.165 -104.351 768.988 -2.26938 793.637C28.5294 801.074 75.3003 843.927 78.7799 896.529C83.0243 960.701 149.905 954.357 145.383 1074.83C140.559 1203.43 -46.2792 1267.05 -144.797 1203.54Z" fill="#6988F3"/>
</svg>
